<?xml version="1.0" encoding="UTF-8" standalone="no"?><!DOCTYPE svg PUBLIC "-//W3C//DTD SVG 1.1//EN" "http://www.w3.org/Graphics/SVG/1.1/DTD/svg11.dtd"><svg width="100%" height="100%" viewBox="0 0 382 117" version="1.1" xmlns="http://www.w3.org/2000/svg" xmlns:xlink="http://www.w3.org/1999/xlink" xml:space="preserve" xmlns:serif="http://www.serif.com/" style="fill-rule:evenodd;clip-rule:evenodd;stroke-linejoin:round;stroke-miterlimit:1.41421;"><path d="M116.122,29.473c0.097,-15.973 -12.792,-29.021 -28.765,-29.119l-57.884,-0.353c-15.973,-0.098 -29.021,12.791 -29.119,28.764l-0.353,57.884c-0.098,15.973 12.791,29.021 28.764,29.119l57.884,0.354c15.973,0.097 29.021,-12.792 29.119,-28.765l0.354,-57.884Z" style="fill:#008ed7;fill-opacity:0.898039;"/><g><g><g><path d="M153.031,28.44l0,26.521l-3.364,0l0,-4.558c-1.43,1.739 -3.034,3.047 -4.814,3.924c-1.779,0.878 -3.725,1.317 -5.838,1.317c-3.754,0 -6.959,-1.361 -9.616,-4.083c-2.657,-2.722 -3.986,-6.033 -3.986,-9.933c0,-3.819 1.341,-7.086 4.022,-9.8c2.682,-2.714 5.907,-4.07 9.678,-4.07c2.177,0 4.148,0.463 5.911,1.389c1.763,0.926 3.311,2.316 4.643,4.168l0,-4.875l3.364,0Zm-13.65,2.608c-1.902,0 -3.657,0.468 -5.266,1.402c-1.608,0.934 -2.888,2.247 -3.839,3.937c-0.95,1.69 -1.426,3.477 -1.426,5.362c0,1.869 0.48,3.657 1.438,5.363c0.959,1.706 2.247,3.035 3.864,3.986c1.617,0.95 3.352,1.426 5.204,1.426c1.869,0 3.641,-0.472 5.314,-1.414c1.674,-0.943 2.962,-2.218 3.864,-3.827c0.902,-1.609 1.353,-3.421 1.353,-5.436c0,-3.071 -1.012,-5.639 -3.035,-7.703c-2.023,-2.064 -4.514,-3.096 -7.471,-3.096Z" style="fill:#f4f4f5;fill-opacity:0.901961;fill-rule:nonzero;"/><rect x="162.195" y="18.202" width="3.413" height="36.759" style="fill:#f4f4f5;fill-opacity:0.901961;fill-rule:nonzero;"/><path d="M197.526,46.161l2.876,1.512c-0.943,1.852 -2.031,3.347 -3.266,4.485c-1.236,1.138 -2.625,2.003 -4.169,2.596c-1.544,0.593 -3.291,0.89 -5.241,0.89c-4.322,0 -7.702,-1.418 -10.14,-4.254c-2.438,-2.836 -3.657,-6.041 -3.657,-9.616c0,-3.364 1.032,-6.362 3.096,-8.995c2.617,-3.348 6.119,-5.021 10.506,-5.021c4.518,0 8.126,1.714 10.823,5.143c1.918,2.421 2.893,5.444 2.925,9.068l-23.839,0c0.065,3.087 1.048,5.619 2.949,7.593c1.901,1.974 4.25,2.962 7.045,2.962c1.349,0 2.661,-0.236 3.937,-0.707c1.275,-0.472 2.36,-1.097 3.254,-1.877c0.894,-0.78 1.861,-2.04 2.901,-3.779Zm0,-7.142c-0.455,-1.82 -1.118,-3.274 -1.987,-4.363c-0.87,-1.089 -2.019,-1.966 -3.449,-2.633c-1.43,-0.666 -2.934,-0.999 -4.51,-0.999c-2.6,0 -4.834,0.837 -6.703,2.511c-1.365,1.218 -2.397,3.047 -3.096,5.484l19.745,0Z" style="fill:#f4f4f5;fill-opacity:0.901961;fill-rule:nonzero;"/><path d="M206.117,28.44l4.095,0l7.02,9.824l7.021,-9.824l4.095,0l-9.068,12.603l10.213,13.918l-4.144,0l-8.117,-11.14l-7.995,11.14l-4.071,0l10.043,-13.918l-9.092,-12.603Z" style="fill:#f4f4f5;fill-opacity:0.901961;fill-rule:nonzero;"/><path d="M236.488,29.488l-2.51,0l-0.537,-11.286l3.608,0l-0.561,11.286Z" style="fill:#f4f4f5;fill-opacity:0.901961;fill-rule:nonzero;"/><path d="M258.304,31.341l-2.194,2.267c-1.82,-1.772 -3.599,-2.657 -5.338,-2.657c-1.105,0 -2.052,0.365 -2.84,1.097c-0.788,0.731 -1.182,1.584 -1.182,2.559c0,0.862 0.325,1.682 0.975,2.462c0.65,0.796 2.015,1.731 4.095,2.803c2.535,1.317 4.258,2.584 5.168,3.803c0.893,1.235 1.34,2.625 1.34,4.168c0,2.178 -0.763,4.023 -2.291,5.534c-1.528,1.511 -3.437,2.267 -5.728,2.267c-1.528,0 -2.986,-0.333 -4.376,-1c-1.389,-0.666 -2.539,-1.584 -3.449,-2.754l2.145,-2.438c1.739,1.967 3.583,2.95 5.533,2.95c1.365,0 2.527,-0.439 3.486,-1.317c0.959,-0.877 1.438,-1.909 1.438,-3.095c0,-0.975 -0.317,-1.845 -0.95,-2.609c-0.634,-0.747 -2.064,-1.69 -4.291,-2.827c-2.388,-1.235 -4.013,-2.454 -4.875,-3.657c-0.861,-1.202 -1.292,-2.575 -1.292,-4.119c0,-2.015 0.687,-3.689 2.06,-5.022c1.373,-1.332 3.108,-1.998 5.204,-1.998c2.438,0 4.892,1.194 7.362,3.583Z" style="fill:#f4f4f5;fill-opacity:0.901961;fill-rule:nonzero;"/><path d="M305.909,33.949l-2.706,1.682c-2.34,-3.104 -5.534,-4.656 -9.58,-4.656c-3.234,0 -5.919,1.04 -8.056,3.12c-2.137,2.08 -3.206,4.607 -3.206,7.581c0,1.934 0.492,3.754 1.475,5.461c0.983,1.706 2.332,3.03 4.046,3.973c1.715,0.942 3.637,1.414 5.765,1.414c3.901,0 7.086,-1.552 9.556,-4.656l2.706,1.779c-1.268,1.902 -2.97,3.376 -5.107,4.425c-2.137,1.048 -4.571,1.572 -7.301,1.572c-4.193,0 -7.67,-1.333 -10.433,-3.998c-2.762,-2.665 -4.144,-5.907 -4.144,-9.726c0,-2.568 0.646,-4.952 1.938,-7.154c1.292,-2.202 3.067,-3.921 5.326,-5.156c2.259,-1.235 4.786,-1.852 7.581,-1.852c1.755,0 3.449,0.268 5.083,0.804c1.633,0.536 3.018,1.235 4.156,2.096c1.137,0.862 2.104,1.959 2.901,3.291Z" style="fill:#f4f4f5;fill-opacity:0.901961;fill-rule:nonzero;"/><rect x="312.952" y="18.202" width="3.413" height="36.759" style="fill:#f4f4f5;fill-opacity:0.901961;fill-rule:nonzero;"/><path d="M350.881,28.44l0,26.521l-3.364,0l0,-4.558c-1.43,1.739 -3.035,3.047 -4.815,3.924c-1.779,0.878 -3.725,1.317 -5.838,1.317c-3.754,0 -6.959,-1.361 -9.616,-4.083c-2.657,-2.722 -3.986,-6.033 -3.986,-9.933c0,-3.819 1.341,-7.086 4.022,-9.8c2.682,-2.714 5.908,-4.07 9.678,-4.07c2.177,0 4.148,0.463 5.911,1.389c1.763,0.926 3.311,2.316 4.644,4.168l0,-4.875l3.364,0Zm-13.651,2.608c-1.901,0 -3.656,0.468 -5.265,1.402c-1.609,0.934 -2.889,2.247 -3.84,3.937c-0.95,1.69 -1.426,3.477 -1.426,5.362c0,1.869 0.48,3.657 1.439,5.363c0.958,1.706 2.246,3.035 3.863,3.986c1.617,0.95 3.352,1.426 5.205,1.426c1.868,0 3.64,-0.472 5.314,-1.414c1.673,-0.943 2.961,-2.218 3.863,-3.827c0.902,-1.609 1.353,-3.421 1.353,-5.436c0,-3.071 -1.012,-5.639 -3.035,-7.703c-2.023,-2.064 -4.513,-3.096 -7.471,-3.096Z" style="fill:#f4f4f5;fill-opacity:0.901961;fill-rule:nonzero;"/><path d="M356.705,28.44l3.608,0l9.117,20.427l8.848,-20.427l3.632,0l-15.82,36.223l-3.607,0l5.119,-11.701l-10.897,-24.522Z" style="fill:#f4f4f5;fill-opacity:0.901961;fill-rule:nonzero;"/><path d="M152.667,72.025l-2.706,1.682c-2.34,-3.104 -5.534,-4.656 -9.58,-4.656c-3.234,0 -5.919,1.04 -8.056,3.12c-2.137,2.08 -3.206,4.607 -3.206,7.581c0,1.934 0.492,3.754 1.475,5.46c0.983,1.707 2.332,3.031 4.046,3.974c1.715,0.942 3.636,1.413 5.765,1.413c3.901,0 7.086,-1.552 9.556,-4.655l2.706,1.779c-1.268,1.901 -2.97,3.376 -5.107,4.424c-2.137,1.048 -4.571,1.573 -7.301,1.573c-4.193,0 -7.67,-1.333 -10.433,-3.998c-2.763,-2.665 -4.144,-5.907 -4.144,-9.726c0,-2.568 0.646,-4.953 1.938,-7.155c1.292,-2.202 3.067,-3.92 5.326,-5.155c2.259,-1.235 4.786,-1.853 7.581,-1.853c1.755,0 3.449,0.268 5.083,0.805c1.633,0.536 3.018,1.235 4.156,2.096c1.137,0.861 2.104,1.958 2.901,3.291Z" style="fill:#f4f4f5;fill-opacity:0.901961;fill-rule:nonzero;"/><path d="M158.93,66.516l3.486,0l0,3.876c1.04,-1.528 2.137,-2.67 3.291,-3.425c1.154,-0.756 2.356,-1.134 3.607,-1.134c0.943,0 1.951,0.301 3.023,0.902l-1.779,2.877c-0.715,-0.309 -1.317,-0.464 -1.804,-0.464c-1.138,0 -2.235,0.468 -3.291,1.402c-1.056,0.934 -1.861,2.385 -2.413,4.351c-0.423,1.512 -0.634,4.567 -0.634,9.166l0,8.97l-3.486,0l0,-26.521Z" style="fill:#f4f4f5;fill-opacity:0.901961;fill-rule:nonzero;"/><path d="M198.37,84.237l2.876,1.512c-0.942,1.852 -2.031,3.347 -3.266,4.485c-1.235,1.137 -2.625,2.003 -4.169,2.596c-1.543,0.593 -3.29,0.89 -5.24,0.89c-4.323,0 -7.703,-1.418 -10.141,-4.254c-2.437,-2.836 -3.656,-6.041 -3.656,-9.616c0,-3.364 1.032,-6.363 3.095,-8.995c2.617,-3.348 6.119,-5.022 10.507,-5.022c4.517,0 8.125,1.715 10.823,5.144c1.917,2.421 2.892,5.444 2.925,9.068l-23.84,0c0.065,3.087 1.048,5.618 2.949,7.593c1.902,1.974 4.25,2.961 7.045,2.961c1.349,0 2.661,-0.235 3.937,-0.706c1.276,-0.472 2.36,-1.097 3.254,-1.877c0.894,-0.78 1.861,-2.04 2.901,-3.779Zm0,-7.142c-0.455,-1.82 -1.117,-3.274 -1.987,-4.363c-0.869,-1.089 -2.019,-1.967 -3.449,-2.633c-1.43,-0.666 -2.933,-0.999 -4.51,-0.999c-2.6,0 -4.834,0.837 -6.703,2.51c-1.365,1.219 -2.397,3.047 -3.096,5.485l19.745,0Z" style="fill:#f4f4f5;fill-opacity:0.901961;fill-rule:nonzero;"/><path d="M235.685,67.841l0,26.521l-3.364,0l0,-4.558c-1.43,1.738 -3.035,3.047 -4.814,3.924c-1.779,0.878 -3.725,1.317 -5.838,1.317c-3.754,0 -6.959,-1.361 -9.616,-4.083c-2.657,-2.722 -3.986,-6.034 -3.986,-9.934c0,-3.819 1.341,-7.085 4.022,-9.799c2.682,-2.714 5.907,-4.071 9.677,-4.071c2.178,0 4.148,0.463 5.912,1.39c1.763,0.926 3.311,2.315 4.643,4.168l0,-4.875l3.364,0Zm-13.65,2.608c-1.902,0 -3.657,0.467 -5.266,1.402c-1.608,0.934 -2.888,2.246 -3.839,3.936c-0.951,1.69 -1.426,3.478 -1.426,5.363c0,1.869 0.48,3.657 1.438,5.363c0.959,1.706 2.247,3.035 3.864,3.985c1.617,0.951 3.352,1.426 5.204,1.426c1.869,0 3.64,-0.471 5.314,-1.413c1.674,-0.943 2.962,-2.219 3.864,-3.827c0.902,-1.609 1.353,-3.421 1.353,-5.436c0,-3.072 -1.012,-5.639 -3.035,-7.703c-2.023,-2.064 -4.514,-3.096 -7.471,-3.096Z" style="fill:#f4f4f5;fill-opacity:0.898039;fill-rule:nonzero;"/><path d="M247.336,57.993l3.437,0l0,9.848l5.412,0l0,2.925l-5.412,0l0,23.596l-3.437,0l0,-23.596l-4.656,0l0,-2.925l4.656,0l0,-9.848Z" style="fill:#f4f4f5;fill-opacity:0.901961;fill-rule:nonzero;"/><path d="M265.968,56.92c0.78,0 1.446,0.277 1.999,0.829c0.553,0.553 0.829,1.219 0.829,1.999c0,0.764 -0.276,1.422 -0.829,1.974c-0.553,0.553 -1.219,0.829 -1.999,0.829c-0.764,0 -1.422,-0.276 -1.974,-0.829c-0.553,-0.552 -0.829,-1.21 -0.829,-1.974c0,-0.78 0.276,-1.446 0.829,-1.999c0.552,-0.552 1.21,-0.829 1.974,-0.829Zm-1.706,10.921l3.437,0l0,26.521l-3.437,0l0,-26.521Z" style="fill:#f4f4f5;fill-opacity:0.901961;fill-rule:nonzero;"/><path d="M290.816,67.158c4.079,0 7.459,1.479 10.141,4.437c2.437,2.697 3.656,5.891 3.656,9.58c0,3.705 -1.288,6.943 -3.864,9.713c-2.575,2.771 -5.886,4.157 -9.933,4.157c-4.063,0 -7.382,-1.386 -9.957,-4.157c-2.576,-2.77 -3.864,-6.008 -3.864,-9.713c0,-3.673 1.219,-6.858 3.656,-9.556c2.682,-2.974 6.07,-4.461 10.165,-4.461Zm0,3.34c-2.827,0 -5.257,1.048 -7.288,3.144c-2.032,2.097 -3.047,4.632 -3.047,7.606c0,1.917 0.463,3.705 1.389,5.362c0.926,1.658 2.178,2.938 3.754,3.84c1.576,0.902 3.307,1.352 5.192,1.352c1.885,0 3.616,-0.45 5.192,-1.352c1.577,-0.902 2.828,-2.182 3.754,-3.84c0.927,-1.657 1.39,-3.445 1.39,-5.362c0,-2.974 -1.02,-5.509 -3.06,-7.606c-2.039,-2.096 -4.464,-3.144 -7.276,-3.144Z" style="fill:#f4f4f5;fill-opacity:0.898039;fill-rule:nonzero;"/><path d="M311.949,67.841l3.413,0l0,4.753c1.365,-1.82 2.876,-3.181 4.534,-4.083c1.657,-0.902 3.461,-1.353 5.411,-1.353c1.983,0 3.742,0.504 5.278,1.512c1.536,1.007 2.669,2.364 3.4,4.07c0.732,1.707 1.097,4.364 1.097,7.971l0,13.651l-3.388,0l0,-12.651c0,-3.055 -0.13,-5.095 -0.39,-6.119c-0.406,-1.755 -1.17,-3.075 -2.291,-3.961c-1.122,-0.885 -2.584,-1.328 -4.388,-1.328c-2.064,0 -3.912,0.682 -5.546,2.047c-1.633,1.365 -2.71,3.055 -3.23,5.071c-0.325,1.316 -0.487,3.721 -0.487,7.215l0,9.726l-3.413,0l0,-26.521Z" style="fill:#f4f4f5;fill-opacity:0.901961;fill-rule:nonzero;"/></g><path d="M358.316,70.564l-2.194,2.267c-1.82,-1.772 -3.6,-2.657 -5.338,-2.657c-1.106,0 -2.052,0.365 -2.84,1.096c-0.788,0.732 -1.183,1.585 -1.183,2.56c0,0.861 0.325,1.682 0.976,2.462c0.65,0.796 2.015,1.731 4.095,2.803c2.535,1.317 4.257,2.584 5.167,3.803c0.894,1.235 1.341,2.624 1.341,4.168c0,2.178 -0.764,4.022 -2.291,5.534c-1.528,1.511 -3.437,2.267 -5.729,2.267c-1.527,0 -2.986,-0.334 -4.375,-1c-1.39,-0.666 -2.539,-1.584 -3.449,-2.754l2.145,-2.438c1.739,1.966 3.583,2.95 5.533,2.95c1.365,0 2.527,-0.439 3.486,-1.317c0.959,-0.877 1.438,-1.909 1.438,-3.096c0,-0.975 -0.317,-1.844 -0.951,-2.608c-0.633,-0.747 -2.063,-1.69 -4.29,-2.827c-2.389,-1.235 -4.014,-2.454 -4.875,-3.657c-0.861,-1.202 -1.292,-2.576 -1.292,-4.119c0,-2.016 0.687,-3.689 2.06,-5.022c1.373,-1.332 3.108,-1.999 5.204,-1.999c2.438,0 4.892,1.195 7.362,3.584Z" style="fill:#f4f4f5;fill-opacity:0.901961;fill-rule:nonzero;"/></g><g><g><path d="M71.517,59.7l-2.518,1.479c-2.073,-2.898 -4.964,-4.392 -8.672,-4.485c-2.963,-0.073 -5.447,0.818 -7.453,2.676c-2.006,1.857 -3.042,4.148 -3.11,6.873c-0.044,1.772 0.365,3.451 1.227,5.037c0.862,1.586 2.068,2.831 3.617,3.733c1.55,0.903 3.3,1.379 5.25,1.427c3.574,0.089 6.528,-1.26 8.862,-4.048l2.439,1.692c-1.205,1.714 -2.798,3.026 -4.78,3.938c-1.982,0.912 -4.224,1.336 -6.726,1.274c-3.842,-0.095 -6.998,-1.396 -9.469,-3.901c-2.47,-2.505 -3.662,-5.507 -3.575,-9.007c0.058,-2.352 0.705,-4.523 1.939,-6.511c1.234,-1.989 2.9,-3.523 4.998,-4.603c2.098,-1.08 4.427,-1.588 6.989,-1.525c1.608,0.04 3.154,0.325 4.639,0.853c1.484,0.529 2.737,1.201 3.76,2.016c1.023,0.815 1.884,1.842 2.583,3.082Z" style="fill:#df8f13;fill-rule:nonzero;stroke:#dd8e12;stroke-width:1.5px;"/><path d="M97.983,59.785l-2.518,1.48c-2.073,-2.898 -4.964,-4.393 -8.672,-4.485c-2.963,-0.074 -5.448,0.818 -7.453,2.675c-2.006,1.858 -3.042,4.149 -3.11,6.874c-0.044,1.772 0.365,3.451 1.227,5.037c0.862,1.586 2.067,2.83 3.617,3.733c1.549,0.903 3.3,1.378 5.25,1.427c3.574,0.089 6.528,-1.261 8.862,-4.048l2.439,1.692c-1.205,1.713 -2.798,3.026 -4.78,3.937c-1.982,0.912 -4.224,1.337 -6.726,1.275c-3.842,-0.096 -6.998,-1.396 -9.469,-3.901c-2.47,-2.505 -3.662,-5.508 -3.575,-9.007c0.058,-2.353 0.705,-4.523 1.939,-6.512c1.234,-1.988 2.9,-3.522 4.998,-4.602c2.098,-1.081 4.427,-1.589 6.989,-1.525c1.608,0.04 3.154,0.324 4.638,0.853c1.485,0.528 2.738,1.2 3.761,2.016c1.023,0.815 1.884,1.842 2.583,3.081Z" style="fill:#fff;fill-opacity:0.901961;fill-rule:nonzero;stroke:#f4f4f5;stroke-width:1.5px;"/><path d="M43.597,54.342l-0.206,23.296l-2.954,-0.026l0.035,-4.004c-1.27,1.516 -2.689,2.653 -4.259,3.41c-1.57,0.757 -3.283,1.127 -5.138,1.111c-3.298,-0.029 -6.103,-1.25 -8.415,-3.661c-2.313,-2.412 -3.454,-5.33 -3.424,-8.756c0.029,-3.354 1.232,-6.213 3.608,-8.576c2.377,-2.363 5.221,-3.53 8.532,-3.501c1.913,0.017 3.64,0.439 5.182,1.266c1.541,0.828 2.89,2.06 4.046,3.698l0.038,-4.283l2.955,0.026Zm-12.011,2.186c-1.67,-0.015 -3.215,0.382 -4.635,1.19c-1.421,0.808 -2.555,1.951 -3.403,3.428c-0.848,1.477 -1.28,3.044 -1.294,4.7c-0.015,1.641 0.393,3.215 1.221,4.721c0.829,1.506 1.95,2.683 3.363,3.531c1.413,0.847 2.933,1.278 4.561,1.293c1.641,0.014 3.201,-0.386 4.678,-1.201c1.478,-0.815 2.619,-1.926 3.423,-3.332c0.805,-1.406 1.215,-2.994 1.231,-4.764c0.024,-2.698 -0.845,-4.961 -2.606,-6.789c-1.761,-1.829 -3.941,-2.754 -6.539,-2.777Z" style="fill:#f4f4f5;fill-rule:nonzero;stroke:#f4f4f5;stroke-width:1.5px;"/><path d="M60.159,86.401l19.679,-0.005c1.003,0 1.958,0.431 2.62,1.185c0.663,0.753 0.969,1.755 0.84,2.75c-0.571,4.322 -2.221,10.899 -7,12.787c-3.126,1.235 -9.986,2.067 -16.203,1.886c-6.218,0.138 -13.072,-0.741 -16.189,-1.998c-4.766,-1.92 -6.371,-8.509 -6.912,-12.835c-0.122,-0.996 0.191,-1.996 0.859,-2.744c0.667,-0.749 1.625,-1.174 2.628,-1.167l19.678,0.141Zm12.636,5.673c2.631,-0.015 3.998,1.728 4.014,4.359c0.015,2.63 -1.387,4.27 -4.018,4.286c-2.63,0.015 -4.214,-1.596 -4.23,-4.226c-0.015,-2.631 1.604,-4.403 4.234,-4.419Zm-25.311,-0.087c-2.63,-0.034 -4.009,1.7 -4.043,4.33c-0.033,2.631 1.358,4.281 3.988,4.314c2.63,0.034 4.225,-1.566 4.259,-4.196c0.033,-2.631 -1.573,-4.415 -4.204,-4.448Z" style="fill:#f69400;fill-opacity:0.898039;"/></g><path d="M57.795,36.91c-4.798,-0.198 -13.931,-0.765 -20.581,-2.71c-4.091,-1.196 -7.077,-2.935 -8.141,-5.085c-3.037,-6.138 -5.05,-18.017 -7.909,-15.734c-1.934,2.4 -1.08,13.953 0.562,19.053c1.789,5.561 8.128,8.687 17.876,10.754c6.944,1.473 28.674,2.03 35.699,0.915c9.841,-1.562 16.331,-4.363 18.403,-9.825c1.9,-5.01 3.345,-16.503 1.536,-18.999c-2.738,-2.427 -5.357,9.333 -8.704,15.308c-1.172,2.093 -4.243,3.676 -8.39,4.662c-6.742,1.602 -15.549,1.709 -20.351,1.661" style="fill:#f4f4f5;"/><path d="M83.651,63.77c2.616,-0.137 4.263,1.712 4.401,4.327c0.137,2.616 -1.326,4.13 -3.941,4.267c-2.616,0.137 -4.509,-1.191 -4.646,-3.807c-0.138,-2.615 1.571,-4.649 4.186,-4.787Z" style="fill:#1a0f0b;fill-opacity:0.898039;"/><path d="M32.919,63.605c2.615,-0.137 4.263,1.712 4.401,4.328c0.137,2.615 -1.326,4.129 -3.941,4.266c-2.616,0.137 -4.509,-1.191 -4.646,-3.807c-0.138,-2.615 1.571,-4.649 4.186,-4.787Z" style="fill:#1a0f0b;fill-opacity:0.898039;"/></g></g></svg>