<?xml version="1.0" encoding="UTF-8" standalone="no"?><!DOCTYPE svg PUBLIC "-//W3C//DTD SVG 1.1//EN" "http://www.w3.org/Graphics/SVG/1.1/DTD/svg11.dtd"><svg width="100%" height="100%" viewBox="0 0 223 177" version="1.1" xmlns="http://www.w3.org/2000/svg" xmlns:xlink="http://www.w3.org/1999/xlink" xml:space="preserve" xmlns:serif="http://www.serif.com/" style="fill-rule:evenodd;clip-rule:evenodd;stroke-linejoin:round;stroke-miterlimit:1.41421;"><g><g><path d="M25.436,12.707c0.426,0.692 1.149,1.149 1.958,1.236c7.129,0.719 14.406,0.037 21.679,1.592c13.447,2.874 21.475,13.707 19.181,19.845c-2.295,6.138 -16.515,10.675 -27.495,2.398c-5.681,-4.283 -11.878,-9.175 -17.239,-12.703c-0.657,-0.428 -1.472,-0.54 -2.22,-0.305c-2.76,0.864 -9.734,3.049 -14.072,4.408c-0.452,0.142 -0.944,-0.037 -1.2,-0.436c-0.256,-0.399 -0.213,-0.92 0.104,-1.272c3.633,-4.03 9.82,-10.892 9.82,-10.892l0.291,-0.844c0,0 -0.169,-9.238 -0.268,-14.663c-0.009,-0.474 0.301,-0.895 0.756,-1.028c0.455,-0.134 0.943,0.054 1.192,0.458c2.323,3.774 6.011,9.766 7.513,12.206Zm33.793,9.862c1.923,0.719 2.901,2.864 2.182,4.788c-0.719,1.923 -2.864,2.901 -4.788,2.182c-1.924,-0.719 -2.902,-2.864 -2.183,-4.788c0.72,-1.924 2.865,-2.902 4.789,-2.182Z" style="fill:#d0d0d1;"/></g><path d="M58.497,24.586c0.909,0.34 1.371,1.353 1.031,2.262c-0.34,0.909 -1.353,1.371 -2.262,1.031c-0.909,-0.339 -1.371,-1.353 -1.031,-2.262c0.339,-0.909 1.353,-1.371 2.262,-1.031Z" style="fill:#d0d0d1;"/></g><g><g><path d="M139.675,86.818c0.427,0.692 1.149,1.149 1.958,1.236c7.129,0.719 14.406,0.037 21.68,1.592c13.447,2.874 21.474,13.707 19.18,19.845c-2.294,6.138 -16.514,10.675 -27.495,2.398c-5.681,-4.283 -11.878,-9.175 -17.239,-12.703c-0.657,-0.428 -1.471,-0.54 -2.22,-0.305c-2.759,0.864 -9.733,3.049 -14.071,4.408c-0.453,0.142 -0.944,-0.037 -1.201,-0.436c-0.256,-0.399 -0.213,-0.92 0.105,-1.272c3.632,-4.03 9.819,-10.892 9.819,-10.892l0.291,-0.844c0,0 -0.168,-9.238 -0.268,-14.663c-0.008,-0.474 0.301,-0.895 0.757,-1.028c0.455,-0.134 0.943,0.054 1.191,0.458c2.324,3.774 6.012,9.766 7.513,12.206Zm33.793,9.862c1.924,0.719 2.902,2.864 2.183,4.788c-0.719,1.923 -2.865,2.901 -4.789,2.182c-1.923,-0.719 -2.901,-2.864 -2.182,-4.788c0.719,-1.924 2.864,-2.902 4.788,-2.182Z" style="fill:#d0d0d1;"/></g><path d="M172.736,98.697c0.909,0.34 1.371,1.353 1.032,2.262c-0.34,0.909 -1.354,1.371 -2.263,1.031c-0.909,-0.339 -1.371,-1.353 -1.031,-2.262c0.34,-0.909 1.354,-1.371 2.262,-1.031Z" style="fill:#d0d0d1;"/></g><g><g><path d="M96.977,133.412c0.427,0.692 1.149,1.149 1.958,1.236c7.129,0.719 14.406,0.037 21.68,1.592c13.447,2.874 21.474,13.707 19.18,19.845c-2.295,6.138 -16.514,10.675 -27.495,2.398c-5.681,-4.283 -11.878,-9.175 -17.239,-12.703c-0.657,-0.428 -1.471,-0.54 -2.22,-0.305c-2.759,0.864 -9.733,3.049 -14.072,4.408c-0.452,0.142 -0.944,-0.037 -1.2,-0.436c-0.256,-0.399 -0.213,-0.92 0.104,-1.272c3.633,-4.03 9.82,-10.892 9.82,-10.892l0.291,-0.844c0,0 -0.169,-9.238 -0.268,-14.663c-0.008,-0.474 0.301,-0.895 0.756,-1.028c0.456,-0.134 0.944,0.054 1.192,0.458c2.323,3.774 6.012,9.766 7.513,12.206Zm33.793,9.862c1.924,0.719 2.901,2.864 2.182,4.788c-0.719,1.923 -2.864,2.901 -4.788,2.182c-1.923,-0.719 -2.901,-2.864 -2.182,-4.788c0.719,-1.924 2.864,-2.902 4.788,-2.182Z" style="fill:#d0d0d1;"/></g><path d="M130.038,145.291c0.909,0.34 1.371,1.353 1.031,2.262c-0.339,0.909 -1.353,1.371 -2.262,1.031c-0.909,-0.339 -1.371,-1.353 -1.031,-2.262c0.34,-0.909 1.353,-1.371 2.262,-1.031Z" style="fill:#d0d0d1;"/></g><g><g><path d="M179.646,147.219c0.426,0.693 1.149,1.149 1.957,1.237c7.13,0.718 14.406,0.037 21.68,1.591c13.447,2.875 21.475,13.707 19.18,19.845c-2.294,6.139 -16.514,10.676 -27.494,2.398c-5.681,-4.283 -11.878,-9.174 -17.239,-12.703c-0.658,-0.427 -1.472,-0.539 -2.22,-0.305c-2.76,0.864 -9.734,3.049 -14.072,4.409c-0.453,0.141 -0.944,-0.037 -1.2,-0.436c-0.256,-0.4 -0.214,-0.921 0.104,-1.273c3.633,-4.029 9.82,-10.891 9.82,-10.891l0.291,-0.845c0,0 -0.169,-9.238 -0.268,-14.662c-0.009,-0.474 0.301,-0.896 0.756,-1.029c0.455,-0.133 0.943,0.054 1.192,0.458c2.323,3.774 6.011,9.766 7.513,12.206Zm33.793,9.862c1.923,0.719 2.901,2.865 2.182,4.788c-0.719,1.924 -2.865,2.902 -4.788,2.183c-1.924,-0.719 -2.902,-2.865 -2.183,-4.789c0.719,-1.923 2.865,-2.901 4.789,-2.182Z" style="fill:#d0d0d1;"/></g><path d="M212.707,159.098c0.909,0.34 1.371,1.354 1.031,2.263c-0.34,0.908 -1.353,1.371 -2.262,1.031c-0.909,-0.34 -1.371,-1.354 -1.031,-2.263c0.339,-0.908 1.353,-1.37 2.262,-1.031Z" style="fill:#d0d0d1;"/></g><g><g><path d="M19.575,140.775c0.426,0.693 1.148,1.149 1.957,1.237c7.129,0.718 14.406,0.037 21.68,1.591c13.447,2.875 21.475,13.707 19.18,19.845c-2.294,6.138 -16.514,10.675 -27.494,2.398c-5.682,-4.283 -11.879,-9.174 -17.239,-12.703c-0.658,-0.428 -1.472,-0.539 -2.22,-0.305c-2.76,0.864 -9.734,3.049 -14.072,4.409c-0.453,0.141 -0.944,-0.037 -1.2,-0.436c-0.257,-0.4 -0.214,-0.921 0.104,-1.273c3.633,-4.029 9.819,-10.891 9.819,-10.891l0.291,-0.845c0,0 -0.168,-9.238 -0.267,-14.662c-0.009,-0.474 0.301,-0.896 0.756,-1.029c0.455,-0.133 0.943,0.054 1.192,0.458c2.323,3.774 6.011,9.766 7.513,12.206Zm33.792,9.862c1.924,0.719 2.902,2.864 2.183,4.788c-0.719,1.924 -2.865,2.902 -4.789,2.183c-1.923,-0.72 -2.901,-2.865 -2.182,-4.789c0.719,-1.923 2.865,-2.901 4.788,-2.182Z" style="fill:#d0d0d1;"/></g><path d="M52.636,152.654c0.908,0.34 1.37,1.354 1.031,2.263c-0.34,0.908 -1.354,1.37 -2.263,1.031c-0.908,-0.34 -1.371,-1.354 -1.031,-2.263c0.34,-0.908 1.354,-1.371 2.263,-1.031Z" style="fill:#d0d0d1;"/></g></svg>