<?xml version="1.0" encoding="UTF-8" standalone="no"?><!DOCTYPE svg PUBLIC "-//W3C//DTD SVG 1.1//EN" "http://www.w3.org/Graphics/SVG/1.1/DTD/svg11.dtd"><svg width="100%" height="100%" viewBox="0 0 362 92" version="1.1" xmlns="http://www.w3.org/2000/svg" xmlns:xlink="http://www.w3.org/1999/xlink" xml:space="preserve" xmlns:serif="http://www.serif.com/" style="fill-rule:evenodd;clip-rule:evenodd;stroke-linejoin:round;stroke-miterlimit:1.41421;"><g><g><g><path d="M132.056,14.88l0,26.521l-3.364,0l0,-4.558c-1.43,1.738 -3.034,3.047 -4.814,3.924c-1.779,0.878 -3.725,1.316 -5.838,1.316c-3.754,0 -6.959,-1.361 -9.616,-4.083c-2.657,-2.722 -3.986,-6.033 -3.986,-9.933c0,-3.819 1.341,-7.085 4.022,-9.799c2.682,-2.714 5.907,-4.071 9.678,-4.071c2.177,0 4.148,0.463 5.911,1.39c1.763,0.926 3.311,2.315 4.643,4.168l0,-4.875l3.364,0Zm-13.65,2.608c-1.902,0 -3.657,0.467 -5.265,1.402c-1.609,0.934 -2.889,2.246 -3.84,3.936c-0.95,1.69 -1.426,3.478 -1.426,5.363c0,1.869 0.48,3.656 1.438,5.363c0.959,1.706 2.247,3.035 3.864,3.985c1.617,0.951 3.352,1.426 5.204,1.426c1.869,0 3.641,-0.471 5.314,-1.413c1.674,-0.943 2.962,-2.219 3.864,-3.828c0.902,-1.608 1.353,-3.42 1.353,-5.435c0,-3.072 -1.012,-5.639 -3.035,-7.703c-2.023,-2.064 -4.514,-3.096 -7.471,-3.096Z" style="fill:#f4f4f5;fill-opacity:0.901961;fill-rule:nonzero;stroke:#f4f4f5;stroke-width:0.95px;"/><rect x="141.22" y="4.642" width="3.413" height="36.759" style="fill:#f4f4f5;fill-opacity:0.901961;fill-rule:nonzero;stroke:#f4f4f5;stroke-width:0.95px;"/><path d="M176.551,32.601l2.876,1.511c-0.943,1.853 -2.031,3.348 -3.266,4.486c-1.236,1.137 -2.625,2.003 -4.169,2.596c-1.544,0.593 -3.291,0.889 -5.241,0.889c-4.322,0 -7.702,-1.417 -10.14,-4.253c-2.438,-2.836 -3.657,-6.041 -3.657,-9.617c0,-3.363 1.032,-6.362 3.096,-8.994c2.617,-3.348 6.119,-5.022 10.506,-5.022c4.518,0 8.126,1.715 10.823,5.144c1.918,2.421 2.893,5.444 2.925,9.067l-23.839,0c0.065,3.088 1.048,5.619 2.949,7.594c1.902,1.974 4.25,2.961 7.045,2.961c1.349,0 2.661,-0.235 3.937,-0.707c1.275,-0.471 2.36,-1.097 3.254,-1.877c0.894,-0.78 1.861,-2.039 2.901,-3.778Zm0,-7.142c-0.455,-1.82 -1.118,-3.275 -1.987,-4.363c-0.869,-1.089 -2.019,-1.967 -3.449,-2.633c-1.43,-0.666 -2.934,-0.999 -4.51,-0.999c-2.6,0 -4.834,0.837 -6.703,2.51c-1.365,1.219 -2.397,3.047 -3.096,5.485l19.745,0Z" style="fill:#f4f4f5;fill-opacity:0.901961;fill-rule:nonzero;stroke:#f4f4f5;stroke-width:0.95px;"/><path d="M185.142,14.88l4.095,0l7.02,9.823l7.021,-9.823l4.095,0l-9.068,12.602l10.213,13.919l-4.144,0l-8.117,-11.14l-7.995,11.14l-4.071,0l10.043,-13.919l-9.092,-12.602Z" style="fill:#f4f4f5;fill-opacity:0.901961;fill-rule:nonzero;stroke:#f4f4f5;stroke-width:0.95px;"/><path d="M215.513,15.928l-2.51,0l-0.537,-11.286l3.608,0l-0.561,11.286Z" style="fill:#f4f4f5;fill-opacity:0.901961;fill-rule:nonzero;stroke:#f4f4f5;stroke-width:0.95px;"/><path d="M237.329,17.78l-2.194,2.267c-1.82,-1.771 -3.599,-2.657 -5.338,-2.657c-1.105,0 -2.052,0.366 -2.84,1.097c-0.788,0.732 -1.182,1.585 -1.182,2.56c0,0.861 0.325,1.682 0.975,2.462c0.65,0.796 2.015,1.731 4.095,2.803c2.535,1.316 4.258,2.584 5.168,3.803c0.893,1.235 1.34,2.624 1.34,4.168c0,2.178 -0.763,4.022 -2.291,5.533c-1.528,1.512 -3.437,2.267 -5.728,2.267c-1.528,0 -2.986,-0.333 -4.376,-0.999c-1.389,-0.666 -2.539,-1.584 -3.449,-2.754l2.145,-2.438c1.739,1.966 3.583,2.949 5.533,2.949c1.365,0 2.527,-0.438 3.486,-1.316c0.959,-0.877 1.438,-1.909 1.438,-3.096c0,-0.975 -0.317,-1.844 -0.95,-2.608c-0.634,-0.747 -2.064,-1.69 -4.291,-2.828c-2.388,-1.235 -4.013,-2.453 -4.875,-3.656c-0.861,-1.202 -1.292,-2.576 -1.292,-4.119c0,-2.016 0.687,-3.689 2.06,-5.022c1.373,-1.333 3.108,-1.999 5.204,-1.999c2.438,0 4.892,1.195 7.362,3.583Z" style="fill:#f4f4f5;fill-opacity:0.901961;fill-rule:nonzero;stroke:#f4f4f5;stroke-width:0.95px;"/><path d="M284.934,20.389l-2.706,1.682c-2.34,-3.104 -5.534,-4.656 -9.58,-4.656c-3.234,0 -5.919,1.04 -8.056,3.12c-2.137,2.08 -3.206,4.607 -3.206,7.581c0,1.934 0.492,3.754 1.475,5.46c0.983,1.707 2.332,3.031 4.046,3.974c1.715,0.942 3.637,1.413 5.765,1.413c3.901,0 7.086,-1.552 9.556,-4.656l2.706,1.78c-1.268,1.901 -2.97,3.376 -5.107,4.424c-2.137,1.048 -4.571,1.572 -7.301,1.572c-4.193,0 -7.67,-1.332 -10.433,-3.997c-2.762,-2.665 -4.144,-5.907 -4.144,-9.726c0,-2.568 0.646,-4.953 1.938,-7.155c1.292,-2.202 3.067,-3.92 5.326,-5.155c2.259,-1.235 4.786,-1.853 7.581,-1.853c1.755,0 3.45,0.268 5.083,0.805c1.633,0.536 3.018,1.235 4.156,2.096c1.137,0.861 2.104,1.958 2.901,3.291Z" style="fill:#f4f4f5;fill-opacity:0.901961;fill-rule:nonzero;stroke:#f4f4f5;stroke-width:0.95px;"/><rect x="291.977" y="4.642" width="3.413" height="36.759" style="fill:#f4f4f5;fill-opacity:0.901961;fill-rule:nonzero;stroke:#f4f4f5;stroke-width:0.95px;"/><path d="M329.906,14.88l0,26.521l-3.364,0l0,-4.558c-1.43,1.738 -3.035,3.047 -4.815,3.924c-1.779,0.878 -3.725,1.316 -5.838,1.316c-3.754,0 -6.959,-1.361 -9.616,-4.083c-2.657,-2.722 -3.986,-6.033 -3.986,-9.933c0,-3.819 1.341,-7.085 4.022,-9.799c2.682,-2.714 5.908,-4.071 9.678,-4.071c2.177,0 4.148,0.463 5.911,1.39c1.763,0.926 3.311,2.315 4.644,4.168l0,-4.875l3.364,0Zm-13.651,2.608c-1.901,0 -3.656,0.467 -5.265,1.402c-1.609,0.934 -2.889,2.246 -3.84,3.936c-0.95,1.69 -1.426,3.478 -1.426,5.363c0,1.869 0.48,3.656 1.439,5.363c0.958,1.706 2.246,3.035 3.863,3.985c1.617,0.951 3.352,1.426 5.205,1.426c1.868,0 3.64,-0.471 5.314,-1.413c1.673,-0.943 2.961,-2.219 3.863,-3.828c0.902,-1.608 1.353,-3.42 1.353,-5.435c0,-3.072 -1.012,-5.639 -3.035,-7.703c-2.023,-2.064 -4.513,-3.096 -7.471,-3.096Z" style="fill:#f4f4f5;fill-opacity:0.901961;fill-rule:nonzero;stroke:#f4f4f5;stroke-width:0.95px;"/><path d="M335.73,14.88l3.608,0l9.117,20.427l8.848,-20.427l3.632,0l-15.82,36.223l-3.607,0l5.119,-11.701l-10.897,-24.522Z" style="fill:#f4f4f5;fill-opacity:0.901961;fill-rule:nonzero;stroke:#f4f4f5;stroke-width:0.95px;"/><path d="M131.692,58.464l-2.706,1.682c-2.34,-3.103 -5.534,-4.655 -9.58,-4.655c-3.234,0 -5.919,1.04 -8.056,3.12c-2.137,2.08 -3.206,4.607 -3.206,7.581c0,1.934 0.492,3.754 1.475,5.46c0.983,1.706 2.332,3.031 4.046,3.973c1.715,0.943 3.637,1.414 5.765,1.414c3.901,0 7.086,-1.552 9.556,-4.656l2.706,1.78c-1.268,1.901 -2.97,3.376 -5.107,4.424c-2.137,1.048 -4.571,1.572 -7.301,1.572c-4.193,0 -7.67,-1.332 -10.433,-3.997c-2.763,-2.666 -4.144,-5.908 -4.144,-9.727c0,-2.567 0.646,-4.952 1.938,-7.154c1.292,-2.202 3.067,-3.92 5.326,-5.155c2.259,-1.236 4.786,-1.853 7.581,-1.853c1.755,0 3.449,0.268 5.083,0.804c1.633,0.537 3.018,1.235 4.156,2.097c1.137,0.861 2.104,1.958 2.901,3.29Z" style="fill:#f4f4f5;fill-opacity:0.901961;fill-rule:nonzero;stroke:#f4f4f5;stroke-width:0.95px;"/><path d="M137.955,52.955l3.486,0l0,3.876c1.04,-1.527 2.137,-2.669 3.291,-3.425c1.154,-0.755 2.356,-1.133 3.607,-1.133c0.943,0 1.951,0.301 3.023,0.902l-1.779,2.876c-0.715,-0.309 -1.317,-0.463 -1.804,-0.463c-1.138,0 -2.235,0.467 -3.291,1.402c-1.056,0.934 -1.861,2.385 -2.413,4.351c-0.423,1.511 -0.634,4.566 -0.634,9.165l0,8.971l-3.486,0l0,-26.522Z" style="fill:#f4f4f5;fill-opacity:0.901961;fill-rule:nonzero;stroke:#f4f4f5;stroke-width:0.95px;"/><path d="M177.395,70.677l2.876,1.511c-0.942,1.853 -2.031,3.348 -3.266,4.485c-1.235,1.138 -2.625,2.003 -4.169,2.596c-1.543,0.594 -3.29,0.89 -5.24,0.89c-4.323,0 -7.703,-1.418 -10.141,-4.253c-2.437,-2.836 -3.656,-6.042 -3.656,-9.617c0,-3.364 1.032,-6.362 3.095,-8.995c2.617,-3.347 6.119,-5.021 10.507,-5.021c4.517,0 8.125,1.714 10.823,5.143c1.917,2.422 2.892,5.444 2.925,9.068l-23.84,0c0.065,3.088 1.048,5.619 2.949,7.593c1.902,1.975 4.25,2.962 7.045,2.962c1.349,0 2.661,-0.236 3.937,-0.707c1.276,-0.471 2.36,-1.097 3.254,-1.877c0.894,-0.78 1.861,-2.039 2.901,-3.778Zm0,-7.142c-0.455,-1.82 -1.117,-3.275 -1.987,-4.364c-0.869,-1.088 -2.019,-1.966 -3.449,-2.632c-1.43,-0.667 -2.933,-1 -4.51,-1c-2.6,0 -4.834,0.837 -6.703,2.511c-1.365,1.219 -2.397,3.047 -3.096,5.485l19.745,0Z" style="fill:#f4f4f5;fill-opacity:0.901961;fill-rule:nonzero;stroke:#f4f4f5;stroke-width:0.95px;"/><path d="M214.71,54.28l0,26.522l-3.364,0l0,-4.559c-1.43,1.739 -3.034,3.047 -4.814,3.925c-1.779,0.877 -3.725,1.316 -5.838,1.316c-3.754,0 -6.959,-1.361 -9.616,-4.083c-2.657,-2.722 -3.986,-6.033 -3.986,-9.933c0,-3.819 1.341,-7.085 4.022,-9.799c2.682,-2.714 5.907,-4.071 9.677,-4.071c2.178,0 4.148,0.463 5.912,1.389c1.763,0.927 3.311,2.316 4.643,4.169l0,-4.876l3.364,0Zm-13.65,2.609c-1.902,0 -3.657,0.467 -5.266,1.401c-1.608,0.935 -2.888,2.247 -3.839,3.937c-0.951,1.69 -1.426,3.478 -1.426,5.363c0,1.869 0.48,3.656 1.438,5.363c0.959,1.706 2.247,3.034 3.864,3.985c1.617,0.951 3.352,1.426 5.204,1.426c1.869,0 3.64,-0.471 5.314,-1.414c1.674,-0.942 2.962,-2.218 3.864,-3.827c0.902,-1.609 1.353,-3.421 1.353,-5.436c0,-3.071 -1.012,-5.639 -3.035,-7.703c-2.023,-2.063 -4.514,-3.095 -7.471,-3.095Z" style="fill:#f4f4f5;fill-opacity:0.898039;fill-rule:nonzero;stroke:#f4f4f5;stroke-width:0.95px;"/><path d="M226.361,44.432l3.437,0l0,9.848l5.412,0l0,2.926l-5.412,0l0,23.596l-3.437,0l0,-23.596l-4.656,0l0,-2.926l4.656,0l0,-9.848Z" style="fill:#f4f4f5;fill-opacity:0.901961;fill-rule:nonzero;stroke:#f4f4f5;stroke-width:0.95px;"/><path d="M244.993,43.36c0.78,0 1.446,0.276 1.999,0.829c0.553,0.552 0.829,1.219 0.829,1.999c0,0.763 -0.276,1.422 -0.829,1.974c-0.553,0.553 -1.219,0.829 -1.999,0.829c-0.764,0 -1.422,-0.276 -1.974,-0.829c-0.553,-0.552 -0.829,-1.211 -0.829,-1.974c0,-0.78 0.276,-1.447 0.829,-1.999c0.552,-0.553 1.21,-0.829 1.974,-0.829Zm-1.706,10.92l3.437,0l0,26.522l-3.437,0l0,-26.522Z" style="fill:#f4f4f5;fill-opacity:0.901961;fill-rule:nonzero;stroke:#f4f4f5;stroke-width:0.95px;"/><path d="M269.841,53.598c4.079,0 7.459,1.479 10.141,4.436c2.437,2.698 3.656,5.891 3.656,9.58c0,3.705 -1.288,6.943 -3.864,9.714c-2.575,2.771 -5.886,4.156 -9.933,4.156c-4.062,0 -7.382,-1.385 -9.957,-4.156c-2.576,-2.771 -3.864,-6.009 -3.864,-9.714c0,-3.673 1.219,-6.858 3.656,-9.555c2.682,-2.974 6.07,-4.461 10.165,-4.461Zm0,3.339c-2.827,0 -5.257,1.049 -7.288,3.145c-2.032,2.096 -3.047,4.631 -3.047,7.605c0,1.918 0.463,3.705 1.389,5.363c0.926,1.658 2.178,2.937 3.754,3.839c1.576,0.902 3.307,1.353 5.192,1.353c1.885,0 3.616,-0.451 5.192,-1.353c1.577,-0.902 2.828,-2.181 3.754,-3.839c0.927,-1.658 1.39,-3.445 1.39,-5.363c0,-2.974 -1.02,-5.509 -3.06,-7.605c-2.039,-2.096 -4.464,-3.145 -7.276,-3.145Z" style="fill:#f4f4f5;fill-opacity:0.898039;fill-rule:nonzero;stroke:#f4f4f5;stroke-width:0.95px;"/><path d="M290.974,54.28l3.413,0l0,4.754c1.365,-1.82 2.876,-3.181 4.534,-4.083c1.657,-0.902 3.461,-1.353 5.411,-1.353c1.983,0 3.742,0.504 5.278,1.511c1.536,1.008 2.669,2.365 3.4,4.071c0.732,1.706 1.097,4.363 1.097,7.971l0,13.651l-3.388,0l0,-12.652c0,-3.055 -0.13,-5.094 -0.39,-6.118c-0.406,-1.755 -1.17,-3.075 -2.291,-3.961c-1.122,-0.886 -2.584,-1.329 -4.388,-1.329c-2.064,0 -3.912,0.683 -5.546,2.048c-1.633,1.365 -2.709,3.055 -3.23,5.07c-0.325,1.317 -0.487,3.722 -0.487,7.216l0,9.726l-3.413,0l0,-26.522Z" style="fill:#f4f4f5;fill-opacity:0.901961;fill-rule:nonzero;stroke:#f4f4f5;stroke-width:0.95px;"/></g><path d="M337.341,57.003l-2.194,2.267c-1.82,-1.771 -3.6,-2.657 -5.338,-2.657c-1.105,0 -2.052,0.366 -2.84,1.097c-0.788,0.731 -1.183,1.585 -1.183,2.56c0,0.861 0.326,1.682 0.976,2.462c0.65,0.796 2.015,1.73 4.095,2.803c2.535,1.316 4.257,2.584 5.167,3.803c0.894,1.235 1.341,2.624 1.341,4.168c0,2.177 -0.764,4.022 -2.291,5.533c-1.528,1.512 -3.437,2.267 -5.729,2.267c-1.527,0 -2.986,-0.333 -4.375,-0.999c-1.39,-0.667 -2.539,-1.585 -3.449,-2.755l2.145,-2.437c1.739,1.966 3.583,2.949 5.533,2.949c1.365,0 2.527,-0.439 3.486,-1.316c0.959,-0.878 1.438,-1.91 1.438,-3.096c0,-0.975 -0.317,-1.844 -0.951,-2.608c-0.633,-0.748 -2.063,-1.69 -4.29,-2.828c-2.389,-1.235 -4.014,-2.454 -4.875,-3.656c-0.861,-1.203 -1.292,-2.576 -1.292,-4.12c0,-2.015 0.687,-3.689 2.06,-5.021c1.373,-1.333 3.108,-1.999 5.204,-1.999c2.438,0 4.892,1.194 7.362,3.583Z" style="fill:#f4f4f5;fill-opacity:0.901961;fill-rule:nonzero;"/></g><g><g><path d="M4.444,46.606l2.518,1.479c2.073,-2.897 4.964,-4.392 8.672,-4.484c2.963,-0.074 5.448,0.818 7.453,2.675c2.006,1.857 3.043,4.149 3.11,6.874c0.045,1.772 -0.364,3.451 -1.226,5.037c-0.862,1.586 -2.068,2.83 -3.618,3.733c-1.549,0.902 -3.299,1.378 -5.25,1.427c-3.574,0.089 -6.528,-1.261 -8.862,-4.049l-2.439,1.693c1.205,1.713 2.798,3.025 4.78,3.937c1.983,0.912 4.224,1.337 6.726,1.274c3.842,-0.095 6.998,-1.396 9.469,-3.901c2.471,-2.505 3.663,-5.507 3.575,-9.006c-0.058,-2.353 -0.704,-4.524 -1.938,-6.512c-1.234,-1.988 -2.9,-3.523 -4.998,-4.603c-2.099,-1.08 -4.428,-1.588 -6.989,-1.524c-1.609,0.04 -3.155,0.324 -4.639,0.853c-1.485,0.528 -2.738,1.2 -3.761,2.015c-1.023,0.815 -1.884,1.843 -2.583,3.082Z" style="fill:#dd8e12;fill-rule:nonzero;stroke:#c78d25;stroke-width:1.5px;"/><path d="M72.93,46.691l-2.518,1.48c-2.074,-2.898 -4.964,-4.392 -8.672,-4.485c-2.963,-0.073 -5.448,0.818 -7.454,2.676c-2.005,1.857 -3.042,4.148 -3.11,6.873c-0.044,1.772 0.365,3.451 1.227,5.037c0.862,1.586 2.068,2.831 3.618,3.733c1.549,0.903 3.299,1.379 5.25,1.427c3.574,0.089 6.528,-1.26 8.862,-4.048l2.439,1.692c-1.205,1.713 -2.799,3.026 -4.781,3.938c-1.982,0.912 -4.224,1.336 -6.725,1.274c-3.842,-0.096 -6.998,-1.396 -9.469,-3.901c-2.471,-2.505 -3.663,-5.507 -3.576,-9.007c0.059,-2.353 0.705,-4.523 1.939,-6.511c1.234,-1.989 2.9,-3.523 4.998,-4.603c2.098,-1.08 4.428,-1.589 6.989,-1.525c1.608,0.04 3.155,0.324 4.639,0.853c1.484,0.529 2.738,1.201 3.761,2.016c1.022,0.815 1.883,1.842 2.583,3.081Z" style="fill:#cf8718;fill-opacity:0.901961;fill-rule:nonzero;stroke:#cf8718;stroke-width:1.5px;"/><path d="M40.106,73.308l19.678,-0.006c1.004,0 1.959,0.432 2.621,1.185c0.662,0.753 0.968,1.756 0.84,2.751c-0.571,4.321 -2.221,10.899 -7.001,12.787c-3.126,1.235 -9.986,2.066 -16.202,1.885c-6.218,0.138 -13.072,-0.741 -16.189,-1.997c-4.767,-1.921 -6.372,-8.51 -6.912,-12.835c-0.122,-0.996 0.191,-1.996 0.858,-2.745c0.668,-0.749 1.626,-1.174 2.629,-1.167l19.678,0.142Zm12.636,5.673c2.63,-0.016 3.998,1.728 4.013,4.358c0.016,2.63 -1.387,4.271 -4.017,4.286c-2.63,0.015 -4.215,-1.596 -4.23,-4.226c-0.015,-2.63 1.604,-4.403 4.234,-4.418Zm-25.311,-0.088c-2.63,-0.033 -4.01,1.701 -4.043,4.331c-0.034,2.63 1.357,4.28 3.987,4.313c2.631,0.034 4.226,-1.566 4.259,-4.196c0.034,-2.63 -1.573,-4.414 -4.203,-4.448Z" style="fill:#dd8e12;fill-opacity:0.898039;"/></g><path d="M37.742,23.817c-4.799,-0.199 -13.931,-0.765 -20.582,-2.71c-4.091,-1.197 -7.077,-2.935 -8.14,-5.086c-3.037,-6.138 -5.05,-18.017 -7.909,-15.733c-1.934,2.399 -1.08,13.952 0.561,19.053c1.789,5.56 8.128,8.686 17.876,10.754c6.945,1.473 28.675,2.029 35.699,0.914c9.842,-1.562 16.332,-4.363 18.403,-9.825c1.901,-5.01 3.345,-16.503 1.537,-18.999c-2.739,-2.427 -5.357,9.334 -8.704,15.308c-1.173,2.093 -4.244,3.677 -8.391,4.662c-6.741,1.602 -15.548,1.709 -20.35,1.662" style="fill:#f4f4f5;"/><path d="M15.471,48.587c3.019,-0.094 4.873,2.079 4.967,5.098c0.093,3.018 -1.631,4.727 -4.65,4.821c-3.018,0.093 -5.168,-1.486 -5.261,-4.504c-0.094,-3.019 1.926,-5.322 4.944,-5.415Z" style="fill:#514e4e;fill-opacity:0.898039;"/><path d="M62.016,48.587c3.018,-0.094 4.872,2.079 4.966,5.098c0.093,3.018 -1.631,4.727 -4.649,4.821c-3.019,0.093 -5.169,-1.486 -5.262,-4.504c-0.094,-3.019 1.926,-5.322 4.945,-5.415Z" style="fill:#514e4e;fill-opacity:0.898039;"/></g></g></svg>